<?xml version="1.0" encoding="UTF-8"?><svg id="Layer_1" xmlns="http://www.w3.org/2000/svg" xmlns:xlink="http://www.w3.org/1999/xlink" viewBox="0 0 402.54 126.38"><defs><style>.cls-1{fill:url(#radial-gradient);}.cls-2{fill:#fff;}</style><radialGradient id="radial-gradient" cx="66.42" cy="69.27" fx="24.04" fy="1.86" r="88.17" gradientUnits="userSpaceOnUse"><stop offset="0" stop-color="#f5b9ff"/><stop offset=".57" stop-color="#c866e9"/><stop offset=".96" stop-color="#7e37ca"/></radialGradient></defs><path class="cls-2" d="M201.08,70.9v24.2c0,1.43-.42,2.53-1.26,3.3-.84.77-2,1.16-3.49,1.16s-2.56-.4-3.4-1.21-1.26-1.89-1.26-3.26v-23.73c0-3.85-.76-6.67-2.28-8.47-1.52-1.8-3.89-2.7-7.12-2.7-3.78,0-6.82,1.18-9.12,3.54-2.3,2.36-3.44,5.52-3.44,9.49v21.87c0,1.36-.42,2.45-1.26,3.26s-1.97,1.21-3.4,1.21-2.57-.4-3.44-1.21c-.87-.81-1.3-1.89-1.3-3.26v-37.88c0-1.3.45-2.37,1.35-3.21s2.03-1.26,3.4-1.26,2.45.4,3.26,1.21c.81.81,1.21,1.86,1.21,3.16v3.82c1.49-2.73,3.57-4.81,6.23-6.24,2.67-1.43,5.68-2.14,9.03-2.14,10.86,0,16.29,6.11,16.29,18.33Z"/><path class="cls-2" d="M251.61,88.68c.56.68.84,1.55.84,2.6,0,1.8-1.12,3.32-3.35,4.56-2.17,1.24-4.55,2.2-7.12,2.89-2.57.68-5.04,1.02-7.4,1.02-7.2,0-12.88-2.09-17.03-6.28-4.16-4.19-6.24-9.91-6.24-17.17,0-4.65.91-8.78,2.75-12.38,1.83-3.6,4.41-6.39,7.72-8.38,3.32-1.98,7.09-2.98,11.31-2.98,6.08,0,10.89,1.95,14.42,5.86,3.54,3.91,5.3,9.18,5.3,15.82,0,2.48-1.12,3.72-3.35,3.72h-28.76c.62,9.62,5.24,14.43,13.87,14.43,2.29,0,4.28-.31,5.96-.93,1.68-.62,3.44-1.43,5.3-2.42.19-.12.7-.39,1.54-.79.84-.4,1.54-.61,2.09-.61.87,0,1.58.34,2.14,1.02ZM224.62,62.9c-2.17,2.3-3.47,5.52-3.91,9.68h24.01c-.19-4.22-1.26-7.46-3.21-9.73-1.95-2.26-4.7-3.4-8.24-3.4s-6.48,1.15-8.66,3.44Z"/><path class="cls-2" d="M264.5,98.45c-.9-.75-1.35-1.86-1.35-3.35v-57.51c0-1.49.45-2.62,1.35-3.4.9-.77,2.03-1.16,3.4-1.16s2.48.39,3.35,1.16c.87.78,1.3,1.91,1.3,3.4v57.51c0,1.49-.43,2.6-1.3,3.35-.87.74-1.99,1.12-3.35,1.12s-2.5-.37-3.4-1.12Z"/><path class="cls-2" d="M287.02,98.45c-.9-.75-1.35-1.86-1.35-3.35v-57.51c0-1.49.45-2.62,1.35-3.4.9-.77,2.03-1.16,3.4-1.16s2.48.39,3.35,1.16c.87.78,1.3,1.91,1.3,3.4v57.51c0,1.49-.43,2.6-1.3,3.35-.87.74-1.99,1.12-3.35,1.12s-2.5-.37-3.4-1.12Z"/><path class="cls-2" d="M308.66,42.15c-1.06-.99-1.58-2.29-1.58-3.91s.53-2.9,1.58-3.86c1.05-.96,2.48-1.44,4.28-1.44s3.15.48,4.24,1.44c1.08.96,1.63,2.25,1.63,3.86s-.53,2.92-1.58,3.91c-1.05.99-2.48,1.49-4.28,1.49s-3.23-.5-4.28-1.49ZM309.54,98.45c-.9-.75-1.35-1.86-1.35-3.35v-37.78c0-1.49.45-2.62,1.35-3.4.9-.77,2.03-1.16,3.4-1.16s2.48.39,3.35,1.16c.87.78,1.3,1.91,1.3,3.4v37.78c0,1.49-.43,2.6-1.3,3.35-.87.74-1.99,1.12-3.35,1.12s-2.5-.37-3.4-1.12Z"/><path class="cls-2" d="M368.4,88.68c.56.68.84,1.55.84,2.6,0,1.8-1.12,3.32-3.35,4.56-2.17,1.24-4.55,2.2-7.12,2.89-2.57.68-5.04,1.02-7.4,1.02-7.2,0-12.88-2.09-17.03-6.28-4.16-4.19-6.24-9.91-6.24-17.17,0-4.65.91-8.78,2.75-12.38,1.83-3.6,4.41-6.39,7.72-8.38,3.32-1.98,7.09-2.98,11.31-2.98,6.08,0,10.89,1.95,14.42,5.86,3.54,3.91,5.3,9.18,5.3,15.82,0,2.48-1.12,3.72-3.35,3.72h-28.76c.62,9.62,5.24,14.43,13.87,14.43,2.29,0,4.28-.31,5.96-.93,1.68-.62,3.44-1.43,5.3-2.42.19-.12.7-.39,1.54-.79.84-.4,1.54-.61,2.09-.61.87,0,1.58.34,2.14,1.02ZM341.41,62.9c-2.17,2.3-3.47,5.52-3.91,9.68h24.01c-.19-4.22-1.26-7.46-3.21-9.73-1.95-2.26-4.7-3.4-8.24-3.4s-6.48,1.15-8.66,3.44Z"/><path class="cls-1" d="M121.21,29.21v72.75c0,9.4-6.27,17.82-15.4,20.08-1.61.4-3.23.59-4.84.59-5.63,0-11.08-2.37-15.01-6.79L25.27,47.55c-.83-.94-.75-2.37.19-3.2l3.72-3.31c.94-.83,2.37-.75,3.2.19l60.7,68.29c3.6,4.05,8.43,4.15,11.76,2.88,3.32-1.26,6.87-4.54,6.87-9.96V29.21c0-5.34-3.59-8.29-6.95-9.27-3.36-.98-7.98-.42-10.84,4.08l-16.75,26.31c-.05.07-.15.08-.2.02l-6.39-7.2s-.04-.11-.01-.15l15.33-24.08c4.69-7.37,13.14-10.55,21.52-8.11,8.39,2.44,13.8,9.66,13.8,18.4ZM40.62,16.82c-5.61-6.32-14.34-8.46-22.24-5.45-7.9,3-13,10.4-13,18.85v72.98c0,8.49,5.46,16.12,13.59,18.58,1.95.59,3.9.88,5.81.88,6.38,0,12.29-3.2,15.94-8.92l15.17-23.82-6.56-7.4-16.62,26.11c-2.87,4.5-7.48,5.06-10.84,4.08-3.36-.98-6.95-3.93-6.95-9.27V30.22c0-5.42,3.55-8.7,6.87-9.97,3.32-1.26,8.16-1.17,11.76,2.88l60.7,68.29c.83.94,2.26,1.02,3.2.19l3.72-3.31c.93-.83,1.02-2.26.19-3.2L40.62,16.82Z"/></svg>