<?xml version="1.0" encoding="UTF-8"?><svg id="Layer_1" xmlns="http://www.w3.org/2000/svg" viewBox="0 0 110.27 110.27"><defs><style>.cls-1{fill:#7e37ca;}.cls-2{fill:#fff;}</style></defs><circle class="cls-2" cx="55.14" cy="55.14" r="55.14"/><path class="cls-1" d="M49.15,21c.86-.04,1.86.37,2.48.97l30.9,30.9c1.22,1.27,1.22,3.28,0,4.55l-30.9,30.9c-1.38,1.19-2.94,1.32-4.39.17-3.39-2.7-6.47-7.01-9.85-9.85-.87-1.36-.69-3.13.42-4.3l19.1-19.13-19.02-19.17c-1.18-1.17-1.4-2.98-.5-4.38,3.38-2.77,6.55-7.35,9.93-9.94.52-.4,1.16-.68,1.82-.72Z"/></svg>