<?xml version="1.0" encoding="UTF-8"?><svg id="Layer_1" xmlns="http://www.w3.org/2000/svg" viewBox="0 0 59.15 57.27"><defs><style>.cls-1{fill:#fff;}</style></defs><path class="cls-1" d="M44.11,4.41c-1.22,8.54,9.77,8.42,8.71,0,3,.04,5.83,1.8,6.33,4.88v42.79c-.66,3.18-2.64,4.66-5.81,4.9-6.89.52-21.29.18-21.29.18,0,0-18.59.11-26.93-.2-2.51-.32-4.2-1.62-5.03-4.01l-.08-44.29c.93-2.7,3.46-4.23,6.28-4.26-1.12,8.47,9.85,8.51,8.71,0h29.13ZM54.16,18.13H4.95v33.31l.5.5h48.21l.5-.5V18.13Z"/><path class="cls-1" d="M12.55,8.33c-1.37,1.36-3.97.72-4.43-1.23-.63-2.71-.65-8.22,3.53-6.89,2.33.74,2.13,6.89.89,8.13Z"/><path class="cls-1" d="M47.71.12c3.76-.82,4.05,4.5,3.29,6.98-.81,2.64-4.76,2.48-5.19-.21-.3-1.93-.52-6.25,1.9-6.78Z"/><rect class="cls-1" x="11.98" y="24.49" width="7.03" height="7.03"/><rect class="cls-1" x="26.04" y="24.49" width="7.03" height="7.03"/><rect class="cls-1" x="40.1" y="24.49" width="7.03" height="7.03"/><rect class="cls-1" x="11.98" y="38.55" width="7.03" height="7.03"/><rect class="cls-1" x="26.04" y="38.55" width="7.03" height="7.03"/><rect class="cls-1" x="40.1" y="38.55" width="7.03" height="7.03"/></svg>