<?xml version="1.0" encoding="UTF-8"?><svg id="Layer_1" xmlns="http://www.w3.org/2000/svg" viewBox="0 0 118.18 126.91"><defs><style>.cls-1{fill:#fff;}</style></defs><g id="rpgeMh"><path class="cls-1" d="M82.56,126.91H31.66c.82-18.67-1.88-37.05-9.79-54-1.82-3.9-4.01-7.23-5.32-11.42-1.22-3.92-1.73-7.89-2.09-11.97,3.56.77,7.26,1.74,10.92,1.16-.25,5.89,3.54,11.47,8.91,13.75,1.07.46,3.78.9,4.33,1.25.57.37,2.06,2.43,2.92,3.12,5.4,4.33,13.33,4.18,18.62-.2,6.06,4.64,14.52,4.55,20.07-.83.71-.69,1.55-2.22,2.19-2.69.65-.46,2.28-.9,3.22-1.43,6.42-3.68,8.64-10.76,6.68-17.74-.13-.45-.6-1.04-.61-1.38-.02-.58,1.18-3.21,1.3-4.42.59-6.07-2.1-12.05-7.51-15.03-.93-.51-2.32-.83-3.06-1.35s-1.21-1.64-1.82-2.24c-5.66-5.57-13.97-6.19-20.29-1.28-1.86-1.13-3.56-2.27-5.71-2.82-1.37-.35-3.28-.75-4.6-.4-.96-4.95-3.76-9.25-6.97-13.01,2.3-.77,4.6-1.63,6.97-2.21,24.81-6.13,46.4,6.57,54.49,30.34,1.71,5.04,2.35,10.05,4.5,15.02,2.25,5.19,6.2,10.02,8.28,14.96,1.23,2.91,1.71,4.94-2.11,5.31-2.08.2-4.46-1.19-5.32,1.42-1.16,7.84,2.32,19.34-3.01,25.8-5.74,6.96-14.86,4.39-22.77,4.88-.43,0-1.52,1.26-1.52,1.51v25.91Z"/><path class="cls-1" d="M21.16.1c19.26-1.71,32.16,19.64,21.52,35.93-9.46,14.49-31.29,13.76-39.72-1.37C-5.23,19.96,4.45,1.58,21.16.1ZM21.85,4.27c-3.58.49-6.64,3.78-7.09,7.32-.45,3.58,3.14,4.34,4.18,1.86.28-.67.08-1.25.23-1.86.79-3.31,5.33-4.19,7.38-1.44,2.56,3.42-.67,5.51-2.33,8.13-1.84,2.89-3.21,7.02-3.27,10.46-.03,2.14,1.82,4.19,3.73,2.55,1.05-.9.57-2.72.74-3.91.3-2.2.99-4.33,2.11-6.26,1.3-2.24,3.76-4.1,4.12-6.8.79-6-3.71-10.86-9.8-10.03ZM21.75,36.59c-.97.98-.94,4.89.68,5.55,3,1.23,3.84-2.81,2.85-4.94-.65-1.4-2.41-1.73-3.52-.62Z"/><path class="cls-1" d="M60.4,54.72c-.62-.62-2.42-1.91-3.29-1.91-1.21,0-2.39,1.39-2.16,2.58.32,1.67,3.04,2.02,3.57,4.58.23,1.12.04,3.86-.59,4.78-1.51,2.2-5.95,3.16-8.46,2.88-1.98-.22-7.4-2.68-7.33-4.94.02-.66.84-3.54,1.14-4.22.48-1.08,1.66-2.33,2.74-2.84,1.8-.84,5.16-.04,4.69-3.18-.51-3.44-6.53-.99-8.23.34-2.7,2.11-3.83,5.08-4.42,8.36-5.23-1.13-8.6-5.7-8.49-11.02,3.21-.68,5.98-2.35,8.95-3.62h49.04c.82.16,1.23,2.83,1.27,3.61.21,3.52-1.53,7.04-4.29,9.18-.54.41-2,1.46-2.56.93-.47-.45-1.42-3.06-1.93-3.88-.96-1.54-2.58-3.08-4.16-3.98-1.99-1.13-8.52-3.4-8.22.76.18,2.41,2.98,1.79,4.66,2.33,1.76.57,3.28,1.87,4.23,3.43.39.63,1.66,3.21,1.78,3.82.16.8-1.51,2.32-2.18,2.84-3.16,2.46-7.63,2.73-11.19.98-.6-.3-2.32-1.39-2.41-2.03-.1-.8.49-2.54.49-3.47,0-2.1-1.18-4.83-2.66-6.31Z"/><path class="cls-1" d="M43.28,42.32c5.15-5.91,8.09-13.19,7.44-21.15,1.58-.23,6.45,1.4,7.08,2.79.36.79-.4,4.35-.35,5.7.07,1.77,1.12,6.59,2.32,7.84,1.24,1.29,3.68.45,3.74-1.35.03-.9-.8-2.2-1.06-3.13-.53-1.84-.69-3.54-.58-5.46.13-2.12.16-3.33,1.97-4.54,5.15-3.43,11.92-1.92,14.99,3.38-.1,2.84-1.48,5.81-4.25,6.89-1.76.69-5.04-.08-4.82,2.86.27,3.81,6.86,1.2,8.69-.15,2.5-1.84,3.66-4.08,4.35-7.05.05-.21-.1-.52.34-.35.18.07,1.37.96,1.63,1.16,3.66,2.98,5.31,8.22,3.03,12.54h-44.5Z"/></g></svg>