<?xml version="1.0" encoding="UTF-8"?><svg id="Layer_1" xmlns="http://www.w3.org/2000/svg" viewBox="0 0 110.29 138.41"><defs><style>.cls-1{fill:#fff;}</style></defs><g id="mnfaVa"><path class="cls-1" d="M9.63,60.29c-9.91,7.66-11.97,20.22-7.11,31.45,6.79,15.7,15.6,30.64,22.46,46.33l.6.35,23.43-48.76c9.11-24.38-19-45.11-39.38-29.36ZM40.14,80.05c-.41,4.81-6.04,10.6-9.48,13.76-.6.55-4.93,4.21-5.28,4.23-4.9-3.73-14.11-11.36-14.74-17.82-.44-4.54,2.17-8.73,6.88-9.26,3.28-.37,6.13,1.17,7.86,3.91,4.8-7.37,15.53-3.8,14.75,5.2Z"/><path class="cls-1" d="M31.01,137.87l11.96-24.88c14.15-1.23,26.08-6.3,27.85-21.85,1.57-13.79-9.22-23.33,1.89-36.3,3.82-4.46,9.76-8.2,15.08-10.65.84-.39,5.92-2.61,6.32-2.36.38.6,1.18,1.24.57,1.93-3.31,2.55-6.86,5.11-9.64,8.24-9.61,10.83-2.86,16.65.27,27.9,2.69,9.63,2.55,20.17-1.44,29.44-8.61,20-32.75,27.43-52.86,28.53Z"/><path class="cls-1" d="M86.85,5.6c-3.74,5.53-2.3,9.93.18,15.44,2.64,5.87,6.75,15.36,10.02,20.59.1.15.41.76.59.62l11.51-23.84c6.13-15.55-13.99-25.08-22.29-12.81ZM104.96,12.86c-.22,2.52-3.16,5.55-4.96,7.2-.31.29-2.58,2.2-2.76,2.21-2.57-1.95-7.38-5.94-7.71-9.33-.23-2.37,1.13-4.57,3.6-4.85,1.72-.19,3.21.61,4.11,2.04,2.51-3.86,8.12-1.99,7.72,2.72Z"/></g></svg>