<?xml version="1.0" encoding="UTF-8"?><svg id="Layer_1" xmlns="http://www.w3.org/2000/svg" viewBox="0 0 57.05 56.92"><defs><style>.cls-1{fill:#fff;}</style></defs><g id="ST3vSX"><path class="cls-1" d="M23.03,56.92c.54-4.06.96-8.18.42-12.26-2.04.96-4.3,2.07-6.38.62-.91-.63-4.54-4.26-5.23-5.17-1.82-2.39-.22-4.21.42-6.65-4.14-.43-8.17-.07-12.25.63,2.07-4.64,4.46-10.61,9.16-13.13,3.26-1.75,6.62-2.17,10.28-2.18C27.69,7.08,41.4-2.55,56.42.6c3.22,14.83-6.47,28.77-18.07,36.88-.14,3.21-.42,6.49-1.76,9.44-2.35,5.18-8.53,8-13.56,10ZM39.05,11.34c-8.81.93-5.52,15.16,3.29,11.32,5.89-2.57,3.56-12.04-3.29-11.32Z"/><path class="cls-1" d="M8.87,41.92c-2.2,2.47-3.78,5.3-2.43,8.66,1.94.72,3.96.6,5.79-.34.41-.21,2.83-2.13,2.98-1.98-1.56,6.8-8.37,6.53-13.95,7.39,1.11-5.35.67-12.61,7.61-13.73Z"/></g></svg>