<?xml version="1.0" encoding="UTF-8"?><svg id="Layer_1" xmlns="http://www.w3.org/2000/svg" viewBox="0 0 60.09 60.09"><defs><style>.cls-1{fill:#fff;}</style></defs><path class="cls-1" d="M30.04,60.09C13.48,60.09,0,46.61,0,30.04S13.48,0,30.04,0s30.04,13.48,30.04,30.04-13.48,30.04-30.04,30.04ZM30.04,4.65c-14,0-25.39,11.39-25.39,25.39s11.39,25.39,25.39,25.39,25.39-11.39,25.39-25.39S44.04,4.65,30.04,4.65Z"/><path class="cls-1" d="M25.55,17.55l17.09,11.04c1.41.91,1.41,2.97,0,3.89l-17.09,11.04c-1.54.99-3.57-.11-3.57-1.94v-22.08c0-1.83,2.03-2.94,3.57-1.94Z"/></svg>