<?xml version="1.0" encoding="UTF-8"?><svg id="Layer_1" xmlns="http://www.w3.org/2000/svg" viewBox="0 0 118.74 108.31"><defs><style>.cls-1{fill:#fff;}</style></defs><path class="cls-1" d="M92.66,33.35V6.93h-15.42v10.66L59.1,0,0,59.32l.11.57,9.43,9.4,7.6-7.03v46.04h35.67c-.3,0-.62-.02-.96-.07-2.83-.4-3.25-2.73-3.13-5.15.27-5.27,1.69-8.71-.45-14.05-.39-.99-2.82-5.36-3.49-5.83-.4-.28-1.41-.37-2.08-.74-2.6-1.43-4-4.46-4.56-7.28-2.2-11.24,5.57-26.44,18.85-21.67-1.77-6.72,6.03-12.47,11.93-8.53,4.84,3.23,4.97,10.38-.12,13.39-2.1,1.24-3.85,1.04-6.19,1.21.85,3.04.6,7.36,3.11,9.61,2.29,2.05,7.2,2.03,3.99,7.1,1.24.03,2.96,2.43,2.96,3.41v27.81c0,.15-.74.77-1.05.75-.38.16-1.32-.54-1.32-.75v-27.51c-.37-1.71-2.98-2.31-3.98-.72-.57.91-.17,2.83-1.49,2.93-2.49.18-.76-3.75.14-4.88.38-.47,1.11-.22.89-1.02-6.33-1.13-8.64-7.12-9.77-12.72-3.57,2.51-4.65,7.54-4.11,11.66.28,2.16,2.63,5.17,3.58,7.37,2.23,5.21,3,10.97,2.62,16.63-.25,3.83-.84,9.06-5.39,9.05h48.47v-46.27l7.34,7.24,10.12-9.62-26.08-26.31Z"/></svg>