<?xml version="1.0" encoding="UTF-8"?><svg id="Layer_1" xmlns="http://www.w3.org/2000/svg" viewBox="0 0 104.67 129.32"><defs><style>.cls-1{fill:#fff;}</style></defs><g id="s322jU"><path class="cls-1" d="M15.44,86.59c-7.99-.95-7.2-10.27-5.75-15.98,4.79-18.77,17.86-36.21,34.19-46.47,8.04-5.05,20.46-8.73,26.71.8,2.26,7.98,3.88,16.17,5.73,24.27.34.09.39-.14.59-.29.82-.63,2.13-1.97,2.95-2.75,2.68-2.55,6.34-6.89,9.15-8.95,2.7-1.98,6.25-.76,8.13,1.71,1.19,1.56,1.47,3.05,1.51,4.99,3.76,1.63,6.18,5.55,6,9.64h-3.74c.38-2.21-2.53-6.34-4.81-6.1-.69.07-5.08,5.17-6.2,5.81v75.74l-.3.3h-3.64V57.27c-.38.3-.82.56-1.18.88-2.67,2.33-7.15,8.05-10.38,8.9-3.49.92-6.33-.96-7.38-4.31-1.78-5.68-2.75-12.53-4.2-18.42-.08-.32-.16-1.3-.53-1.2-9.38,6.15-18.22,14.17-23.53,24.18h30c.09,0,1.39.46,1.61.55,4.15,1.69,6.16,7.31,5.12,11.49-5.73,14.51-10.57,29.45-16.52,43.87-.84,2.04-1.34,3.49-3.31,4.76-6.44,4.12-15.76-1.92-13.25-9.52l12.09-31.88H15.44Z"/><rect class="cls-1" y="90.13" width="38.56" height="39.15"/><path class="cls-1" d="M83.37.09c11.33-1.16,19.86,9.63,15.36,20.28-4.65,11.01-20.38,12.26-26.37,1.83-5.21-9.06.58-21.04,11.01-22.11Z"/></g></svg>