<?xml version="1.0" encoding="UTF-8"?><svg id="Layer_1" xmlns="http://www.w3.org/2000/svg" viewBox="0 0 64.47 62.42"><defs><style>.cls-1{fill:#fff;}</style></defs><path class="cls-1" d="M64.33,22.64l-.43-.83c-.09-.18-.23-.33-.39-.44l-8.23-5.85-.03-6.08c0-.11-.01-.21-.04-.32-.22-.83-.84-1.86-2.55-2.02-.67-.06-1.41-.09-2.25-.09-.92,0-1.86.04-2.77.07-.89.03-1.81.07-2.7.07-.73,0-1.37-.02-1.95-.07-1.45-.86-2.93-1.99-4.37-3.09-1.65-1.26-3.36-2.57-5.11-3.53-.42-.23-.86-.45-1.46-.45-.19,0-.39.02-.61.07-.17.03-.33.1-.47.2l-9.8,6.8c-.6.05-1.27.07-2.02.07-.94,0-1.93-.04-2.88-.07-.97-.04-1.97-.08-2.95-.08-.89,0-1.67.03-2.39.1-.82.08-1.84.34-2.4,1.7-.06.15-.09.3-.1.46l-.15,6.92L.97,21.36c-.16.12-.3.27-.39.44l-.43.83C.05,22.82,0,23.02,0,23.22l.05,37.11c0,.14.02.27.06.4.27.81.81,1.35,1.62,1.62.13.04.26.06.4.06h60.19c.14,0,.27-.02.4-.06.81-.27,1.35-.81,1.62-1.62.04-.13.06-.26.06-.4l.05-37.11c0-.2-.05-.41-.14-.59ZM8.34,22.54v2.22l-1.45-1.2,1.45-1.01ZM33.93,7.09h-3.7l1.83-1.32,1.87,1.32ZM55.25,25.51v-3.6l2.34,1.64-2.34,1.95ZM50.06,29.83l-11.28,9.41-5.89-4.11c-.21-.15-.47-.23-.72-.23-.07,0-.14,0-.21.02l-.55.09c-.19.03-.38.11-.54.23l-5.25,3.86-12.1-10.04V12.28h36.54v17.55ZM32.05,40.79l21.94,16.5H10.43l21.62-16.5ZM43,42.56l16.29-13.55v25.64l-16.29-12.09ZM25.57,40.71h0l-13.32-11.05,13.32,11.05ZM5.18,29l16.17,13.39-16.17,12.23v-25.62ZM53.98,19.48l5.69,3.98-5.69-3.98h0ZM50.41,8.26c.06,0,.11,0,.17,0-.11,0-.22,0-.32,0,.05,0,.1,0,.15,0ZM32.05,1.26s.09,0,.13,0c-.04,0-.09,0-.13,0,0,0,0,0,0,0ZM21.62,8.3L31.7,1.31l-10.08,6.99s0,0,0,0c0,0,0,0,0,0ZM13.32,8.26c.05,0,.11,0,.16,0-.11,0-.23,0-.34,0,.06,0,.12,0,.18,0Z"/><path class="cls-1" d="M20.1,25.31c.77.07,1.65.11,2.77.11.65,0,1.31-.01,1.95-.02.63-.01,1.29-.02,1.91-.02.67,0,1.24.01,1.75.04,4.65.21,9.37.26,13.93.32.17,0,.41.02.67.05.36.03.76.07,1.16.07.56,0,1.01-.07,1.35-.23.53-.23.85-.67.93-1.22.14-1.07-.44-1.8-1.58-2.03-.04,0-.08-.01-.11-.01-3.75-.03-7.56-.15-11.25-.27-3.28-.1-6.66-.21-9.99-.26-.21,0-.48-.01-.78-.02-.53-.02-1.13-.03-1.7-.03h0c-.72,0-1.21.03-1.54.09-.85.16-1.42.85-1.39,1.69.04.79.64,1.63,1.92,1.75ZM44.28,25.21s-.03,0-.04,0c0,0,0,0-.01,0,.02,0,.04,0,.06,0ZM22.97,24.79s-.06,0-.1,0c-.02,0-.04,0-.06,0,.05,0,.1,0,.15,0ZM21.1,22.42s.01,0,.02,0c-.01,0-.03,0-.04,0,0,0,.01,0,.02,0Z"/><path class="cls-1" d="M44.62,28.16c-.84-.08-1.79-.11-3.11-.11-.54,0-1.1,0-1.64.01-.52,0-1.06.01-1.57.01-.45,0-.84,0-1.19-.01-.94-.02-1.89-.05-2.83-.07-3.67-.1-7.46-.2-11.21-.24-.33,0-.69-.04-1.07-.07-.44-.04-.9-.08-1.35-.08-.35,0-.65.02-.94.07-.49.08-.9.31-1.18.65-.26.32-.39.73-.35,1.15.07.82.77,1.65,1.97,1.65h0c3.35.05,6.76.14,10.06.22,4.89.12,9.95.25,14.92.26h0c.1,0,.19-.02.28-.06.85-.41,1.29-1.14,1.15-1.89-.15-.8-.91-1.37-1.94-1.47ZM20.15,30.48s-.04,0-.06,0c.03,0,.05,0,.08,0h-.01ZM20.63,28.23s0,0,.01,0c.01,0,.02,0,.04,0-.02,0-.03,0-.05,0ZM41.51,28.68c.07,0,.14,0,.2,0-.09,0-.18,0-.27,0,.02,0,.05,0,.07,0Z"/><path class="cls-1" d="M19.43,19.35c.4.1,1.44.17,1.45.17,1.34.08,2.7.09,3.86.09.5,0,.99,0,1.49,0,.49,0,.98,0,1.47,0,.81,0,1.46,0,2.06.02,1.44.03,2.91.08,4.33.12,3.14.09,6.39.19,9.6.2.14,0,.27.02.42.04.16.02.33.05.52.05.35,0,.66-.08,1-.25.59-.3.95-.92.93-1.59-.02-.64-.4-1.19-.99-1.44-.41-.18-1.52-.25-1.97-.27-1.41-.07-2.89-.08-4.14-.08-.41,0-.82,0-1.24,0-.41,0-.82,0-1.23,0-1.03,0-1.81,0-2.52-.02-1.41-.03-2.85-.09-4.25-.15-1.88-.08-3.83-.16-5.73-.18-.27,0-.62-.01-1.03-.02-.65-.02-1.4-.04-2.08-.04h0c-.85,0-1.42.03-1.8.1-.8.15-1.35.79-1.38,1.61-.03.8.47,1.47,1.24,1.67ZM44.61,19.39s-.01,0-.02,0c.02,0,.04,0,.05,0-.01,0-.02,0-.04,0ZM39.44,17.02c.12,0,.23,0,.35,0-.21,0-.42,0-.63,0,.09,0,.19,0,.28,0ZM24.74,18.98s-.02,0-.03,0c.01,0,.03,0,.04,0,0,0,0,0-.01,0ZM24.46,16.67c.45,0,.89.01,1.34.02-.45-.01-.9-.02-1.34-.02-.04,0-.08,0-.13,0,.04,0,.09,0,.13,0ZM21.36,16.61s.03,0,.04,0c-.02,0-.04,0-.05,0,0,0,0,0,.01,0Z"/></svg>