<?xml version="1.0" encoding="UTF-8"?><svg id="Layer_1" xmlns="http://www.w3.org/2000/svg" viewBox="0 0 67.56 60.65"><defs><style>.cls-1{fill:#fff;}</style></defs><g id="jBKtpA"><path class="cls-1" d="M.04,47.07c.06-.48.44-1.59.63-2.07,1.78-4.3,7.2-6.11,11.22-3.73V12.07c0-.72,1.08-1.28,1.62-1.54C21.77,6.62,31.15,3.96,39.49.13c1.37-.48,2.58.38,2.71,1.78v36.26c-.61,7.77-11.12,10.08-14.83,3.23-3.83-7.08,3.96-14.58,10.87-10.68V12.79l-22.37,8.99-.02,27.07c-.84,9.41-14.72,9.39-15.81.33-.06-.49-.06-1.62,0-2.11Z"/><path class="cls-1" d="M53,45.88v-25.24c0-.84,1.43-1.45,2.06-1.76,2.66-1.3,6.67-3.25,9.4-4.17,1.46-.49,2.52-.23,3,1.35-.09,2.65.23,5.53.04,8.15-.06.8-.2,1.28-.88,1.75l-9.64,4.46-.02,23.05c-.74,7-9.61,9.82-14.09,4.22-5.44-6.8,2.67-16.1,10.14-11.8Z"/></g></svg>