<?xml version="1.0" encoding="UTF-8"?><svg id="Layer_1" xmlns="http://www.w3.org/2000/svg" viewBox="0 0 65.43 62.31"><defs><style>.cls-1{fill:#fff;}</style></defs><g id="_7aw24U"><path class="cls-1" d="M17.22.09c1.13-.16,2.39-.07,3.52,0,12.14,3.67,26.19,4.97,38.13,8.82,4.13,1.33,6.75,5.1,6.54,9.46-3.14,11.66-4.85,24.28-8.21,35.82-1.18,4.06-3.39,7.51-7.93,8.13H7.68c-4.34-.72-7.09-4.06-7.43-8.39-.78-9.85.61-20.71,0-30.67.28-3.51,2.35-6.46,5.61-7.77.71-.28,2.21-.37,2.54-.86,1.15-3.55,1.16-8.31,3.54-11.3C13.06,1.9,15.42.35,17.22.09ZM13.63,14.87h35.39c1.25,0,4.04,1.43,4.99,2.31.79.73,2.67,3.66,2.67,4.63v11.31c.41-.21.5-1.24.61-1.7.8-3.28,3.01-10.82,3.05-13.75.02-1.66-.94-3-2.39-3.71L18.9,4.99c-4.64.14-4.31,6.6-5.27,9.88ZM8.22,20.03c-1.82.53-2.7,1.56-2.86,3.46-.87,9.76.67,20.78,0,30.67.43,2.14,1.92,3.11,4.01,3.29,12.27,1.05,26.02-.81,38.45,0,1.8-.16,3.53-1.09,3.77-3.04-.46-10.09.51-20.37.19-30.41-.06-1.82-.92-3.23-2.62-3.9l-40.94-.06Z"/><path class="cls-1" d="M49.63,41.87l-7.93-10.43c-1.07-1-2.24-1.29-3.51-.41-3.21,2.87-5.81,7.23-8.86,10.12-.53.5-.93.77-1.71.74-1.63-.07-5.75-4.66-7.58-5.58-1.31-.65-2.03-.16-3.17.41-3.18,1.61-6.02,4.18-9.32,5.64v-18.37c0-.9,2.02-2.47,3.04-2.31,11.46.76,24.22-1.01,35.53,0,1.21.11,2.34.54,2.99,1.63.1.16.52,1.12.52,1.18v17.39ZM17.93,31.57c3.81-3.8-2.79-8.94-5.47-4.62-2.39,3.85,2.63,7.45,5.47,4.62Z"/></g></svg>