<?xml version="1.0" encoding="UTF-8"?><svg id="Layer_1" xmlns="http://www.w3.org/2000/svg" xmlns:xlink="http://www.w3.org/1999/xlink" viewBox="0 0 178.09 20.63"><defs><style>.cls-1{fill:#c866e9;}.cls-2{fill:#3e0a6e;}.cls-3{fill:url(#radial-gradient);}.cls-4{fill:#fef0fe;}.cls-5{isolation:isolate;}.cls-6{fill:#5c1a8c;}</style><radialGradient id="radial-gradient" cx="77.19" cy="-5454.92" fx="77.19" fy="-5463.06" r="10.64" gradientTransform="translate(0 -5443.75) scale(1 -1)" gradientUnits="userSpaceOnUse"><stop offset="0" stop-color="#f5b9ff"/><stop offset=".57" stop-color="#c866e9"/><stop offset=".96" stop-color="#7e37ca"/></radialGradient></defs><rect class="cls-4" x="0" y="0" width="178.09" height="20.63" rx="10.32" ry="10.32"/><path class="cls-2" d="M26.14,9.42c.26.17.46.4.61.71.14.3.21.66.21,1.06s-.07.75-.21,1.05c-.14.3-.35.53-.61.7-.26.17-.56.25-.9.25-.31,0-.58-.07-.81-.2s-.4-.33-.52-.59v1.97c0,.07-.02.13-.06.18s-.1.07-.17.07-.13-.02-.18-.07-.07-.1-.07-.18v-4.92c0-.08.02-.13.07-.18s.1-.07.18-.07.13.02.17.07.06.1.06.18v.53c.12-.26.29-.46.52-.59.23-.13.5-.2.81-.2.34,0,.64.08.9.25ZM26.12,12.34c.23-.27.34-.66.34-1.15s-.11-.9-.34-1.18c-.23-.28-.54-.42-.94-.42s-.72.14-.94.41-.33.67-.33,1.17.11.89.33,1.17.53.41.93.41.73-.14.95-.41Z"/><path class="cls-2" d="M28.59,12.94c-.27-.16-.48-.4-.63-.7s-.22-.66-.22-1.06.07-.76.22-1.06.36-.54.63-.7c.27-.16.58-.25.94-.25s.66.08.93.25c.27.17.48.4.63.7s.22.66.22,1.06-.07.76-.22,1.06-.35.54-.63.7c-.27.17-.58.25-.93.25s-.67-.08-.94-.25ZM30.46,12.35c.22-.27.33-.66.33-1.17s-.11-.89-.34-1.17c-.23-.28-.54-.42-.94-.42s-.72.14-.94.42c-.22.28-.33.67-.33,1.17s.11.9.33,1.17c.22.27.53.41.94.41s.73-.13.95-.41Z"/><path class="cls-2" d="M37.81,9.19c.06,0,.12.02.17.06s.07.1.07.16c0,.01,0,.04-.02.08l-1.33,3.47c-.02.06-.06.1-.11.14-.05.03-.11.05-.16.05s-.11-.02-.16-.05c-.05-.03-.09-.08-.11-.14l-1.18-3.04-1.17,3.04c-.02.06-.06.1-.11.14-.05.03-.11.05-.16.05s-.11-.02-.16-.05c-.05-.03-.09-.08-.11-.14l-1.34-3.47s-.02-.06-.02-.08c0-.06.03-.12.08-.17s.12-.07.18-.07c.1,0,.17.05.21.15l1.16,3.16,1.2-3.13c.02-.06.06-.1.1-.14.05-.03.1-.05.14-.05.05,0,.1.02.15.05.04.03.08.08.1.14l1.19,3.12,1.18-3.14c.04-.1.1-.15.2-.15Z"/><path class="cls-2" d="M42,12.36s.05.09.05.14c0,.12-.09.23-.27.34-.38.23-.79.34-1.21.34-.59,0-1.05-.18-1.39-.53-.34-.36-.51-.84-.51-1.47,0-.4.08-.75.23-1.06.15-.31.36-.54.64-.71.27-.17.59-.25.94-.25.5,0,.89.16,1.18.48.29.32.43.76.43,1.33,0,.1-.02.17-.06.21-.04.04-.11.07-.21.07h-2.65c.02.49.14.86.38,1.12.24.25.58.38,1.01.38.23,0,.42-.03.57-.09.15-.06.32-.14.49-.24.12-.08.2-.12.25-.12s.09.02.12.06ZM39.58,9.92c-.22.23-.36.56-.4.98h2.46c-.01-.42-.12-.75-.32-.98-.2-.23-.49-.35-.85-.35s-.67.12-.89.35Z"/><path class="cls-2" d="M45.12,9.22s.06.08.06.16c0,.13-.08.21-.24.22l-.24.02c-.38.04-.66.17-.84.41-.18.23-.27.51-.27.82v2.06c0,.08-.02.14-.06.18-.04.04-.1.06-.18.06s-.13-.02-.18-.06c-.04-.04-.07-.1-.07-.18v-3.49c0-.08.02-.14.07-.18.05-.04.11-.06.18-.06.07,0,.12.02.17.06.04.04.06.1.06.17v.52c.22-.46.62-.71,1.21-.75h.11c.1-.01.17,0,.22.03Z"/><path class="cls-2" d="M48.81,12.36s.05.09.05.14c0,.12-.09.23-.27.34-.38.23-.79.34-1.21.34-.59,0-1.05-.18-1.39-.53-.34-.36-.51-.84-.51-1.47,0-.4.08-.75.23-1.06.15-.31.36-.54.64-.71.27-.17.59-.25.94-.25.5,0,.89.16,1.18.48.29.32.43.76.43,1.33,0,.1-.02.17-.06.21-.04.04-.11.07-.21.07h-2.65c.02.49.14.86.38,1.12s.58.38,1.01.38c.23,0,.42-.03.57-.09.15-.06.32-.14.49-.24.12-.08.2-.12.25-.12s.09.02.12.06ZM46.4,9.92c-.22.23-.36.56-.4.98h2.46c-.01-.42-.12-.75-.32-.98-.2-.23-.49-.35-.85-.35s-.67.12-.89.35Z"/><path class="cls-2" d="M53.14,7.54s.07.11.07.18v5.2c0,.07-.02.13-.07.18s-.1.07-.18.07-.13-.02-.17-.07c-.04-.04-.06-.1-.06-.18v-.53c-.12.26-.29.46-.52.59s-.5.2-.81.2c-.34,0-.64-.08-.9-.25-.26-.17-.46-.4-.61-.71-.14-.31-.21-.66-.21-1.06s.07-.75.21-1.05c.14-.3.35-.53.61-.7.26-.16.56-.25.9-.25.31,0,.58.07.81.2.23.14.4.33.52.59v-2.25c0-.07.02-.13.06-.18.04-.04.1-.07.17-.07s.13.02.18.07ZM52.39,12.34c.22-.27.33-.66.33-1.17s-.11-.9-.33-1.17-.53-.41-.93-.41-.72.14-.95.41c-.22.27-.33.66-.33,1.16s.11.9.33,1.18c.22.28.54.42.94.42s.72-.14.94-.41Z"/><path class="cls-2" d="M59.21,9.41c.26.17.46.4.61.7.14.3.21.65.21,1.05s-.07.76-.21,1.06c-.14.31-.35.54-.61.71-.26.17-.56.25-.9.25-.31,0-.58-.07-.81-.2s-.4-.33-.52-.59v.53c0,.07-.02.13-.06.18s-.1.07-.17.07-.13-.02-.18-.07-.07-.1-.07-.18v-5.2c0-.07.02-.13.07-.18.04-.04.1-.07.18-.07s.13.02.17.07c.04.05.06.11.06.18v2.25c.12-.26.29-.46.52-.59.23-.13.5-.2.81-.2.34,0,.64.08.9.25ZM59.19,12.33c.23-.28.34-.67.34-1.17s-.11-.89-.34-1.16-.54-.41-.95-.41-.71.14-.93.41-.33.67-.33,1.17.11.89.33,1.17.53.41.94.41.72-.14.94-.42Z"/><path class="cls-2" d="M64.06,9.18c.06,0,.11.02.16.06.05.04.07.09.07.15,0,.04,0,.07-.02.1l-2.26,4.95c-.04.09-.11.13-.21.13-.06,0-.11-.02-.16-.06s-.07-.08-.07-.14c0-.03,0-.06.02-.1l.57-1.23-1.63-3.55s-.02-.06-.02-.1c0-.06.03-.12.08-.16s.12-.07.18-.07c.1,0,.17.05.21.14l1.43,3.22,1.43-3.21c.04-.1.11-.14.21-.14Z"/><path class="cls-3" d="M83.81,6.33v8.78c0,1.14-.76,2.15-1.86,2.42-.19.05-.39.07-.58.07-.68,0-1.34-.29-1.81-.82l-7.33-8.25c-.1-.11-.09-.29.02-.39l.45-.4c.11-.1.29-.09.39.02l7.33,8.25c.43.49,1.02.5,1.42.35.4-.15.83-.55.83-1.2V6.33c0-.64-.43-1-.84-1.12s-.96-.05-1.31.49l-2.02,3.18s-.02.01-.02,0l-.77-.87s0-.01,0-.02l1.85-2.91c.57-.89,1.59-1.27,2.6-.98,1.01.29,1.67,1.17,1.67,2.22h0ZM74.08,4.84c-.68-.76-1.73-1.02-2.69-.66-.96.36-1.57,1.25-1.57,2.28v8.81c0,1.03.66,1.95,1.64,2.24.23.07.47.11.7.11.77,0,1.48-.39,1.92-1.08l1.83-2.88-.79-.89-2.01,3.15c-.35.54-.9.61-1.31.49-.41-.12-.84-.47-.84-1.12V6.45c0-.66.43-1.05.83-1.2s.98-.14,1.42.35l7.33,8.25c.1.11.27.12.39.02l.45-.4c.11-.1.12-.27.02-.39l-7.33-8.25h0Z"/><g class="cls-5"><g class="cls-5"><path class="cls-6" d="M93.18,10.78v2.94c0,.17-.05.31-.15.4-.1.09-.24.14-.42.14s-.31-.05-.41-.15c-.1-.1-.15-.23-.15-.4v-2.88c0-.47-.09-.81-.28-1.03s-.47-.33-.87-.33c-.46,0-.83.14-1.11.43-.28.29-.42.67-.42,1.15v2.66c0,.17-.05.3-.15.4-.1.1-.24.15-.41.15s-.31-.05-.42-.15c-.11-.1-.16-.23-.16-.4v-4.6c0-.16.05-.29.16-.39.11-.1.25-.15.41-.15s.3.05.4.15c.1.1.15.23.15.38v.46c.18-.33.43-.58.76-.76.32-.17.69-.26,1.1-.26,1.32,0,1.98.74,1.98,2.23Z"/><path class="cls-6" d="M99.33,12.94c.07.08.1.19.1.32,0,.22-.14.4-.41.55-.26.15-.55.27-.87.35-.31.08-.61.12-.9.12-.88,0-1.57-.25-2.07-.76-.51-.51-.76-1.21-.76-2.09,0-.57.11-1.07.33-1.5.22-.44.54-.78.94-1.02.4-.24.86-.36,1.38-.36.74,0,1.32.24,1.75.71.43.47.65,1.12.65,1.92,0,.3-.14.45-.41.45h-3.5c.08,1.17.64,1.75,1.69,1.75.28,0,.52-.04.72-.11.2-.08.42-.17.65-.29.02-.02.08-.05.19-.1.1-.05.19-.07.25-.07.11,0,.19.04.26.12ZM96.05,9.81c-.26.28-.42.67-.47,1.18h2.92c-.02-.51-.15-.91-.39-1.18s-.57-.41-1-.41-.79.14-1.05.42Z"/><path class="cls-6" d="M100.89,14.13c-.11-.09-.16-.23-.16-.41v-6.99c0-.18.05-.32.16-.41.11-.09.25-.14.41-.14s.3.05.41.14c.11.09.16.23.16.41v6.99c0,.18-.05.32-.16.41-.11.09-.24.14-.41.14s-.3-.04-.41-.14Z"/><path class="cls-6" d="M103.63,14.13c-.11-.09-.16-.23-.16-.41v-6.99c0-.18.05-.32.16-.41.11-.09.25-.14.41-.14s.3.05.41.14c.11.09.16.23.16.41v6.99c0,.18-.05.32-.16.41-.11.09-.24.14-.41.14s-.3-.04-.41-.14Z"/><path class="cls-6" d="M106.26,7.28c-.13-.12-.19-.28-.19-.47s.06-.35.19-.47.3-.18.52-.18.38.06.51.18.2.27.2.47-.06.35-.19.47c-.13.12-.3.18-.52.18s-.39-.06-.52-.18ZM106.37,14.13c-.11-.09-.16-.23-.16-.41v-4.59c0-.18.05-.32.16-.41.11-.09.25-.14.41-.14s.3.05.41.14c.11.09.16.23.16.41v4.59c0,.18-.05.32-.16.41s-.24.14-.41.14-.3-.04-.41-.14Z"/><path class="cls-6" d="M113.52,12.94c.07.08.1.19.1.32,0,.22-.14.4-.41.55-.26.15-.55.27-.87.35-.31.08-.61.12-.9.12-.88,0-1.56-.25-2.07-.76-.5-.51-.76-1.21-.76-2.09,0-.57.11-1.07.33-1.5s.54-.78.94-1.02c.4-.24.86-.36,1.37-.36.74,0,1.32.24,1.75.71.43.47.64,1.12.64,1.92,0,.3-.14.45-.41.45h-3.5c.08,1.17.64,1.75,1.69,1.75.28,0,.52-.04.72-.11.2-.08.42-.17.64-.29.02-.02.08-.05.19-.1.1-.05.19-.07.25-.07.11,0,.19.04.26.12ZM110.24,9.81c-.26.28-.42.67-.48,1.18h2.92c-.02-.51-.15-.91-.39-1.18-.24-.28-.57-.41-1-.41s-.79.14-1.05.42Z"/></g><g class="cls-5"><path class="cls-1" d="M116.61,13.94c-.4-.23-.72-.57-.94-1-.22-.43-.33-.93-.33-1.49s.12-1.08.35-1.52c.23-.44.55-.78.97-1.02.42-.24.89-.36,1.43-.36.29,0,.58.04.87.12s.55.2.78.34c.24.17.36.36.36.58,0,.13-.03.24-.1.32s-.15.13-.26.13c-.07,0-.14-.02-.2-.05-.07-.03-.15-.08-.26-.15-.19-.12-.36-.21-.53-.28-.16-.06-.36-.1-.58-.1-.51,0-.91.17-1.19.52s-.42.83-.42,1.45.14,1.1.42,1.43c.28.34.67.5,1.19.5.23,0,.43-.03.6-.1.17-.07.35-.16.53-.27.08-.05.17-.1.25-.14.08-.04.16-.06.23-.06.11,0,.19.04.26.13.07.09.1.19.1.32,0,.11-.03.2-.08.29-.06.09-.15.18-.29.27-.23.15-.49.27-.79.35s-.61.12-.92.12c-.54,0-1-.12-1.41-.35Z"/><path class="cls-1" d="M122.08,13.94c-.41-.23-.73-.57-.95-1s-.33-.94-.33-1.51.11-1.09.33-1.52.54-.77.95-1,.89-.35,1.43-.35,1.02.12,1.43.35.73.57.95,1,.33.94.33,1.52-.11,1.08-.33,1.51-.54.77-.95,1-.89.35-1.43.35-1.02-.12-1.43-.35ZM124.67,12.88c.27-.33.4-.82.4-1.46s-.14-1.12-.41-1.45c-.27-.34-.66-.5-1.15-.5s-.88.17-1.15.5c-.27.33-.41.82-.41,1.45s.13,1.13.4,1.46.65.5,1.16.5.89-.17,1.16-.5Z"/><path class="cls-1" d="M132.45,10.78v2.94c0,.17-.05.31-.15.4-.1.09-.24.14-.42.14s-.31-.05-.41-.15c-.1-.1-.15-.23-.15-.4v-2.88c0-.47-.09-.81-.28-1.03s-.47-.33-.87-.33c-.46,0-.83.14-1.11.43-.28.29-.42.67-.42,1.15v2.66c0,.17-.05.3-.15.4-.1.1-.24.15-.41.15s-.31-.05-.42-.15c-.11-.1-.16-.23-.16-.4v-4.6c0-.16.05-.29.16-.39.11-.1.25-.15.41-.15s.3.05.4.15c.1.1.15.23.15.38v.46c.18-.33.43-.58.76-.76.32-.17.69-.26,1.1-.26,1.32,0,1.98.74,1.98,2.23Z"/><path class="cls-1" d="M138.97,10.78v2.94c0,.17-.05.31-.15.4-.1.09-.24.14-.42.14s-.31-.05-.41-.15c-.1-.1-.15-.23-.15-.4v-2.88c0-.47-.09-.81-.28-1.03-.18-.22-.47-.33-.87-.33-.46,0-.83.14-1.11.43-.28.29-.42.67-.42,1.15v2.66c0,.17-.05.3-.15.4-.1.1-.24.15-.41.15s-.31-.05-.42-.15c-.11-.1-.16-.23-.16-.4v-4.6c0-.16.05-.29.16-.39.11-.1.25-.15.41-.15s.3.05.4.15.15.23.15.38v.46c.18-.33.43-.58.76-.76.32-.17.69-.26,1.1-.26,1.32,0,1.98.74,1.98,2.23Z"/><path class="cls-1" d="M145.11,12.94c.07.08.1.19.1.32,0,.22-.14.4-.41.55-.26.15-.55.27-.87.35-.31.08-.61.12-.9.12-.88,0-1.56-.25-2.07-.76-.5-.51-.76-1.21-.76-2.09,0-.57.11-1.07.33-1.5s.54-.78.94-1.02c.4-.24.86-.36,1.37-.36.74,0,1.32.24,1.75.71.43.47.64,1.12.64,1.92,0,.3-.14.45-.41.45h-3.5c.08,1.17.64,1.75,1.69,1.75.28,0,.52-.04.72-.11.2-.08.42-.17.64-.29.02-.02.08-.05.19-.1.1-.05.19-.07.25-.07.11,0,.19.04.26.12ZM141.83,9.81c-.26.28-.42.67-.48,1.18h2.92c-.02-.51-.15-.91-.39-1.18-.24-.28-.57-.41-1-.41s-.79.14-1.05.42Z"/></g><g class="cls-5"><path class="cls-1" d="M147.47,13.94c-.4-.23-.72-.57-.94-1-.22-.43-.33-.93-.33-1.49s.11-1.08.34-1.52.55-.78.97-1.02c.41-.24.89-.36,1.42-.36.29,0,.58.04.87.12.29.08.55.2.77.34.24.17.36.36.36.58,0,.13-.03.24-.1.32-.07.09-.16.13-.26.13-.07,0-.14-.02-.2-.05-.07-.03-.16-.08-.26-.15-.19-.12-.36-.21-.53-.28-.16-.06-.36-.1-.58-.1-.51,0-.91.17-1.19.52-.28.35-.42.83-.42,1.45s.14,1.1.42,1.43c.28.34.67.5,1.19.5.23,0,.43-.03.6-.1.17-.07.35-.16.53-.27.08-.05.17-.1.25-.14.08-.04.16-.06.23-.06.11,0,.19.04.26.13.07.09.1.19.1.32,0,.11-.03.2-.08.29-.06.09-.15.18-.29.27-.23.15-.49.27-.79.35s-.61.12-.92.12c-.54,0-1-.12-1.41-.35Z"/></g><g class="cls-5"><path class="cls-1" d="M155.06,13.52c.07.07.11.17.11.3,0,.15-.06.27-.18.34-.12.08-.29.11-.51.1l-.31-.02c-.61-.05-1.07-.23-1.37-.56-.3-.33-.45-.81-.45-1.45v-2.66h-.68c-.33,0-.5-.15-.5-.44,0-.14.04-.24.13-.32.09-.08.21-.12.37-.12h.68v-1.17c0-.17.05-.31.15-.41.1-.1.24-.15.41-.15s.31.05.42.15c.11.1.16.23.16.41v1.17h1.12c.16,0,.28.04.37.12.09.08.13.19.13.32s-.04.25-.13.33c-.09.08-.21.11-.37.11h-1.12v2.74c0,.35.07.61.22.78.15.17.37.26.67.28l.32.02c.17.01.28.06.36.13Z"/></g></g></svg>